# xmcd CD database file generated by OrangeCD 6.0
#
# Track frame offsets:
#	150
#	21692
#	47687
#	66417
#	83400
#	111873
#	126495
#	151512
#	168093
#	184725
#	203846
#	224220
#	242678
#	262370
#	277192
#	296203
#	312385
#	333386
#
# Disc length: 4636 seconds
#
# Revision: 0
# Processed by: cddbd v1.5.2PL0 Copyright (c) Steve Scherf et al.
# Submitted via: OrangeCD 6.0
#
DISCID=21121a12
DTITLE=Bonnie Raitt - Bonnie Raitt 2
DYEAR=1900
DGENRE=
TTITLE0=No getting over you
TTITLE1=Steal your heart away
TTITLE2=Fearless love
TTITLE3=I'm on your side
TTITLE4=Feelin' or fallin'
TTITLE5=Excited
TTITLE6=Wherever you may be
TTITLE7=Boy can't help it
TTITLE8=Dimming of the day
TTITLE9=Blues for no reasons
TTITLE10=Lovers will
TTITLE11=All day all night
TTITLE12=Crime of passion
TTITLE13=Round a round
TTITLE14=Cure for love
TTITLE15=Rainy day man
TTITLE16=Spit of love
TTITLE17=I got plenty
EXTD=
EXTT0=
EXTT1=
EXTT2=
EXTT3=
EXTT4=
EXTT5=
EXTT6=
EXTT7=
EXTT8=
EXTT9=
EXTT10=
EXTT11=
EXTT12=
EXTT13=
EXTT14=
EXTT15=
EXTT16=
EXTT17=
PLAYORDER=
